PathFileType	4	(X/Y/Z)	C:\Users\Basilio\Documents\Thesis Gigler\squatting_fais\c3dfiles\047\SLS_pre_front5\markers_experimental.trc
DataRate	CameraRate	NumFrames	NumMarkers	Units	OrigDataRate	OrigDataStartFrame	OrigNumFrames
200.000000	200.000000	4	60	mm	200.000000	443	1183
Frame#	Time	FHD			LBHD			RBHD			C7			T10			CLAV			LSHO			LUUPA			LMUPA			LDUPA			LLEP			LMEP			LRAD			LUL			LRFIN			RSHO			RUPA1			RMUPA			RDUPA			RLEP			RMEP			RRAD			RUL			RUFIN			LASI			RASI			USACR			LSACR			RSACR			LTHI1			LTHI2			LTHI3			LTHI4			LLFC			LMFC			LTIB1			LTIB2			LTIB3			LTIB4			LLMAL			LMMAL			LMT1			LMT2			LMT5			RTHI			RTHI2			RTHI3			RTHI4			RLFC			RMFC			RTIB1			RTIB2			RTIB3			RTIB4			RLMAL			RMMAL			RHEE			RMT1			RMT2			RMT5			
		X1	Y1	Z1	X2	Y2	Z2	X3	Y3	Z3	X4	Y4	Z4	X5	Y5	Z5	X6	Y6	Z6	X7	Y7	Z7	X8	Y8	Z8	X9	Y9	Z9	X10	Y10	Z10	X11	Y11	Z11	X12	Y12	Z12	X13	Y13	Z13	X14	Y14	Z14	X15	Y15	Z15	X16	Y16	Z16	X17	Y17	Z17	X18	Y18	Z18	X19	Y19	Z19	X20	Y20	Z20	X21	Y21	Z21	X22	Y22	Z22	X23	Y23	Z23	X24	Y24	Z24	X25	Y25	Z25	X26	Y26	Z26	X27	Y27	Z27	X28	Y28	Z28	X29	Y29	Z29	X30	Y30	Z30	X31	Y31	Z31	X32	Y32	Z32	X33	Y33	Z33	X34	Y34	Z34	X35	Y35	Z35	X36	Y36	Z36	X37	Y37	Z37	X38	Y38	Z38	X39	Y39	Z39	X40	Y40	Z40	X41	Y41	Z41	X42	Y42	Z42	X43	Y43	Z43	X44	Y44	Z44	X45	Y45	Z45	X46	Y46	Z46	X47	Y47	Z47	X48	Y48	Z48	X49	Y49	Z49	X50	Y50	Z50	X51	Y51	Z51	X52	Y52	Z52	X53	Y53	Z53	X54	Y54	Z54	X55	Y55	Z55	X56	Y56	Z56	X57	Y57	Z57	X58	Y58	Z58	X59	Y59	Z59	X60	Y60	Z60	

444	2.215	-130.5971832275391	1489.230590820313	-1091.62451171875	-309.9995117187501	1469.656860351563	-1121.830078125	-290.9418640136719	1473.213012695313	-974.7019042968752	-365.2607116699219	1306.696044921875	-1046.840209960938	-466.1435546875001	1022.680480957031	-1006.422058105469	-225.9846191406251	1223.046752929688	-1069.149047851563	-300.7805175781251	1279.446655273438	-1205.2998046875	-215.2449340820313	1213.412109375	-1338.674926757813	-187.0312805175782	1253.459716796875	-1330.029052734375	-150.8641357421875	1220.763793945313	-1363.640380859375	-89.96739196777345	1240.940185546875	-1381.336059570313	-59.13300704956056	1178.700439453125	-1337.65966796875	182.7177734375	1247.315795898438	-1377.537719726563	164.1444244384766	1266.222045898438	-1450.925415039063	255.9259643554688	1279.134765625	-1400.609741210938	-258.4121093750001	1291.860961914063	-926.8762817382815	-131.9475708007813	1235.347412109375	-813.7189941406252	-104.42138671875	1267.607421875	-839.3237304687502	-62.43840789794923	1232.053466796875	-814.2668457031252	5.288828372955323	1244.31396484375	-824.0225830078127	12.05081462860108	1173.555053710938	-864.919372558594	265.2853393554688	1230.653076171875	-891.2813110351565	262.6479492187501	1254.161254882813	-822.4743652343752	346.5159301757813	1253.0986328125	-887.395690917969	-349.4124145507813	777.2834472656252	-1084.004028320313	-335.5173645019532	812.3017578125002	-859.1883544921877	-517.0368652343751	882.8653564453127	-974.8547363281252	-531.9487304687501	851.2305297851565	-999.3152465820315	-525.0329589843751	854.697937011719	-942.817077636719	-363.9348754882813	649.3184814453126	-1156.701049804688	-282.1210327148438	626.9080200195314	-1161.929321289063	-252.0846710205079	663.4341430664064	-1149.388305664063	-259.5647888183594	571.0668945312501	-1164.872436523438	-150.8390045166016	448.4539794921876	-1139.933349609375	-108.4825592041016	463.6014709472657	-1016.166748046875	-173.3352355957032	292.5786743164063	-1022.5458984375	-199.9679107666016	245.1800689697266	-1090.500610351563	-186.8537750244141	240.6101837158204	-1044.894287109375	-237.7597198486329	185.4873046875	-1010.064208984375	-325.8165283203126	114.0241012573242	-1052.9765625	-300.7031555175782	137.2322692871094	-966.849792480469	-191.0389556884766	63.59765625000001	-978.4298095703127	-188.8457641601563	59.54631423950197	-1023.244323730469	-237.4868164062501	44.03044509887696	-1068.39013671875	-324.5124816894532	659.3803710937501	-759.4248657226564	-258.3758850097657	652.9223632812501	-768.9875488281252	-240.2827453613282	677.6052246093751	-780.6556396484377	-215.3126068115235	582.1270141601564	-775.443298339844	-99.7061462402344	496.7187805175782	-806.1904296875002	-93.63179016113283	499.0639038085939	-929.105651855469	11.40850830078125	427.6899414062501	-836.3598632812502	29.78559112548829	329.4562988281251	-790.2867431640627	58.07994079589845	356.8513793945313	-815.2966918945315	91.69085693359376	325.8172607421876	-851.1342773437502	152.0439453125	177.7086944580078	-817.5838623046877	148.9072570800782	194.6975708007813	-907.8957519531252	118.1084060668946	111.920150756836	-858.748474121094	297.1545410156251	207.4908142089844	-915.2811279296877	303.5272521972657	220.6732025146485	-873.2783813476565	287.2643432617188	180.7662353515625	-809.4528808593752	
445	2.22	-130.0350952148438	1487.723754882813	-1091.777954101563	-309.4446105957032	1467.967163085938	-1121.8935546875	-290.4651794433594	1471.984252929688	-974.8626098632815	-365.0295104980469	1305.64501953125	-1046.846923828125	-466.0081481933595	1021.886169433594	-1006.318298339844	-225.4495544433594	1221.616943359375	-1069.131469726563	-299.3208923339844	1278.097290039063	-1205.882080078125	-215.0149230957032	1212.200561523438	-1338.60693359375	-185.8974761962891	1252.355102539063	-1330.429565429688	-150.5844879150391	1219.6474609375	-1363.601684570313	-89.30206298828126	1239.2138671875	-1381.557983398438	-59.71877288818361	1178.237060546875	-1338.89892578125	183.1527252197266	1245.695922851563	-1377.30615234375	164.4429626464844	1264.732543945313	-1450.777709960938	256.2448425292969	1277.603515625	-1400.490234375	-258.0369873046876	1290.784545898438	-926.981628417969	-131.4231262207032	1233.998657226563	-813.7495727539065	-103.9829559326172	1266.307861328125	-839.373229980469	-62.03578567504884	1230.929443359375	-814.3637695312502	5.729432582855225	1242.902709960938	-824.2534790039065	12.41678714752198	1172.1064453125	-865.4486083984377	265.7733459472657	1228.705200195313	-891.7187500000002	263.0230407714844	1252.346069335938	-822.666198730469	347.0856018066407	1251.92822265625	-888.7504882812502	-349.2175598144532	776.388610839844	-1083.967529296875	-335.8373107910157	811.4966430664065	-858.9778442382815	-517.0994873046876	881.9727783203127	-974.7855224609377	-531.9845581054689	850.354187011719	-999.268493652344	-524.9887695312501	853.859802246094	-942.7525024414065	-363.9005432128907	648.5352783203126	-1156.50927734375	-282.0474243164063	626.3444824218751	-1161.691284179688	-251.9966735839844	662.9064331054689	-1149.2158203125	-259.3022766113282	570.6248168945314	-1164.554809570313	-150.2681427001953	448.1334838867189	-1139.693115234375	-108.0918655395508	463.461151123047	-1015.905212402344	-172.9108581542969	292.4439392089844	-1022.482727050781	-199.4819030761719	245.1155700683594	-1090.32275390625	-186.4728698730469	240.6111755371094	-1044.791259765625	-237.7144317626954	185.4643707275391	-1009.911926269531	-325.7749328613282	114.015609741211	-1052.942626953125	-300.6923828125001	137.166015625	-966.7331542968752	-191.0039215087891	63.5526809692383	-978.330505371094	-188.8825225830078	59.53501510620119	-1023.21484375	-237.3054351806641	44.14224243164063	-1068.480346679688	-324.6359863281251	658.3798217773439	-759.2933349609376	-258.3325805664063	651.9885864257814	-768.8955078125002	-240.5110626220704	676.5146484375001	-780.5488281250002	-215.4583129882813	581.2984619140626	-775.2299804687502	-99.81451416015628	495.993377685547	-806.0486450195315	-93.59756469726564	498.3558349609376	-929.1372070312502	11.48745155334473	427.271209716797	-836.5943603515627	29.96322441101075	328.8171386718751	-790.3447875976565	58.12507247924806	356.2432861328126	-815.2127685546877	92.17742919921876	325.4732055664063	-851.6529541015627	152.4270172119141	177.2333984375	-817.6910400390627	149.2375183105469	194.2922363281251	-908.0234375000002	118.541976928711	111.5923538208008	-858.9167480468752	297.4768371582032	207.3253173828126	-915.3276367187502	304.0268554687501	220.3165283203126	-873.2466430664065	287.6743469238282	180.3116912841797	-809.605407714844	
446	2.225	-129.2868804931641	1487.00830078125	-1091.8544921875	-309.0584411621094	1466.865966796875	-1121.838623046875	-289.8465881347657	1471.019165039063	-974.756530761719	-364.5792846679688	1304.7578125	-1046.88720703125	-466.0570678710939	1020.744873046875	-1006.19091796875	-225.606430053711	1220.818481445313	-1069.181884765625	-299.9766235351563	1277.07763671875	-1205.36669921875	-214.8626861572266	1211.0751953125	-1338.614135742188	-186.2244262695313	1250.9697265625	-1329.97705078125	-150.3347473144532	1218.32470703125	-1363.439086914063	-89.2174530029297	1238.082153320313	-1381.323120117188	-59.17030715942384	1176.268798828125	-1337.8037109375	183.5080261230469	1244.009643554688	-1377.420776367188	165.1881103515625	1262.952392578125	-1450.821166992188	256.5141296386719	1275.777465820313	-1400.498413085938	-257.7982482910157	1289.648071289063	-926.9638671875002	-130.934066772461	1232.946533203125	-814.009216308594	-103.5582733154297	1265.0595703125	-839.6199340820315	-61.81318664550783	1229.419067382813	-814.501892089844	6.056284427642824	1241.556396484375	-824.3862915039065	12.92593002319336	1170.616943359375	-865.9900512695315	266.1822814941407	1227.194458007813	-892.158386230469	263.5426635742188	1250.630615234375	-823.1194458007815	347.5089416503907	1249.962768554688	-888.9107055664065	-349.5678710937501	775.242858886719	-1083.869384765625	-336.1283569335938	810.582214355469	-858.8569335937502	-517.1735229492189	881.1015625000002	-974.7818603515627	-532.2127685546876	849.512390136719	-999.2382812500002	-525.0934448242189	852.7128906250002	-942.8140258789065	-363.8447875976563	647.6011352539064	-1156.33984375	-282.0009155273438	625.7762451171876	-1161.442138671875	-252.0467224121094	662.3665161132814	-1149.055053710938	-258.9862365722657	569.9818725585939	-1164.229125976563	-149.6510925292969	447.8888549804689	-1139.4375	-107.7168807983399	463.1811828613282	-1015.762390136719	-172.6832122802735	292.2855224609376	-1022.202331542969	-199.2996520996094	244.9725799560547	-1090.0654296875	-186.1826171875	240.3127746582032	-1044.503295898438	-237.6258697509766	185.4135437011719	-1009.707397460938	-325.6832885742188	114.0089187622071	-1052.882446289063	-300.6397399902344	137.1048431396485	-966.680114746094	-190.91455078125	63.53101348876955	-978.3501586914065	-188.7653961181641	59.5316734313965	-1023.145324707031	-237.2322692871094	44.09234619140626	-1068.503173828125	-324.8742675781251	657.4824218750001	-758.8933715820314	-258.5751342773438	651.5775756835939	-768.6730957031252	-240.4802398681641	675.8337402343751	-780.6136474609377	-215.6060333251954	580.3934936523439	-774.991149902344	-99.72858428955081	495.2282714843751	-806.1710205078127	-93.73947906494142	497.7424316406251	-929.187438964844	11.58714485168457	426.6149291992189	-836.3590087890627	30.00350761413575	328.0872802734376	-790.2060546875002	58.23298263549806	355.7322692871094	-815.2130126953127	92.20639801025392	325.1582946777344	-851.5850830078127	152.5959167480469	176.9721374511719	-817.7768554687502	149.5938720703125	193.9514312744141	-908.1278076171877	119.2208404541016	111.0459747314453	-859.3992919921877	297.6027221679688	207.3834533691407	-915.3574829101565	304.4352722167969	219.9503173828126	-873.152770996094	287.9287414550782	180.1197204589844	-809.841491699219	
447	2.23	-129.1821594238282	1485.321166992188	-1091.432739257813	-308.5534362792969	1465.918212890625	-1121.866455078125	-289.4353332519532	1469.85498046875	-974.6152343750002	-364.0462646484376	1303.588012695313	-1047.023681640625	-465.9771728515626	1019.992126464844	-1006.069519042969	-225.2933502197266	1219.53759765625	-1069.061645507813	-299.8659057617188	1276.122436523438	-1205.286987304688	-214.6623687744141	1209.954223632813	-1338.56005859375	-185.2315673828125	1249.968627929688	-1330.34228515625	-150.1438446044922	1217.111450195313	-1363.524658203125	-88.76583099365236	1236.526123046875	-1381.49072265625	-59.37948226928712	1175.09814453125	-1338.49072265625	183.6827697753907	1242.35888671875	-1377.2490234375	164.9964752197266	1261.450805664063	-1450.7939453125	256.9423828125001	1274.103759765625	-1400.3583984375	-257.4775390625001	1288.412719726563	-926.8162231445315	-130.5624542236328	1231.447998046875	-813.9803466796877	-103.2036514282227	1263.927734375	-840.0003662109377	-61.3887176513672	1228.235717773438	-814.4844970703127	6.267233848571779	1240.083129882813	-824.725524902344	13.05995273590088	1169.276000976563	-866.0665283203127	264.1419677734376	1223.907958984375	-890.697204589844	264.0229492187501	1248.819091796875	-823.6199340820315	347.8914184570313	1247.9423828125	-889.0422973632815	-349.5063476562501	774.395935058594	-1083.837646484375	-336.3069763183594	809.5522460937502	-858.797302246094	-517.2960815429689	880.1866455078127	-974.7713623046877	-532.4178466796876	848.5255126953127	-999.243103027344	-525.2694702148439	851.954040527344	-942.8071899414065	-363.8635253906251	646.7412719726564	-1156.220458984375	-281.9284057617188	625.1929931640626	-1161.199462890625	-252.1269989013672	661.7879638671876	-1148.730590820313	-258.7944335937501	569.4423828125001	-1163.931030273438	-149.1714935302735	447.6932983398439	-1139.176391601563	-107.1704635620117	462.9439392089845	-1015.380126953125	-172.3150482177735	292.1770629882813	-1022.016235351563	-199.2937774658204	244.7142333984376	-1089.815551757813	-186.0687103271485	240.1217651367188	-1044.220336914063	-237.4311828613282	185.1980895996094	-1009.653625488281	-325.6729125976563	114.0570983886719	-1052.808715820313	-300.6358642578126	137.0303039550782	-966.6013793945315	-191.0617218017578	63.37372970581056	-978.2281494140627	-188.8192596435547	59.4376792907715	-1023.122497558594	-237.1315307617188	44.17258453369141	-1068.529174804688	-325.0206298828126	656.6764526367189	-759.1517333984376	-258.6000061035157	650.4494018554689	-768.894714355469	-240.7638702392579	675.0898437500001	-780.4034423828127	-215.6086730957032	579.7095336914064	-775.0407714843752	-99.79035186767581	494.589080810547	-806.015319824219	-93.51909637451173	497.3086853027345	-929.3170166015627	11.73022747039795	426.0000000000001	-836.3621826171877	30.00556182861329	327.7108154296876	-790.3335571289065	58.36064529418947	355.2341308593751	-815.3309326171877	92.36904907226564	324.5022277832032	-851.5649414062502	153.0606994628907	176.6810302734375	-817.675476074219	150.2754211425782	194.3307647705079	-908.2861328125002	119.8744201660157	110.6419296264649	-859.6689453125002	298.1442565917969	207.1026763916016	-915.4281005859377	304.6296386718751	219.7015838623047	-872.8919067382815	288.1977233886719	179.8710479736328	-809.810974121094	
